<?xml version="1.0" encoding="UTF-8"?>
<svg id="Layer_2" data-name="Layer 2" xmlns="http://www.w3.org/2000/svg" xmlns:xlink="http://www.w3.org/1999/xlink" viewBox="0 0 428.45 555.08">
  <defs>
    <style>
      .cls-1 {
        fill: url(#linear-gradient);
      }

      .cls-1, .cls-2, .cls-3, .cls-4, .cls-5, .cls-6, .cls-7, .cls-8, .cls-9, .cls-10, .cls-11, .cls-12, .cls-13, .cls-14, .cls-15, .cls-16, .cls-17, .cls-18, .cls-19, .cls-20, .cls-21, .cls-22, .cls-23, .cls-24, .cls-25, .cls-26 {
        stroke-width: 0px;
      }

      .cls-2 {
        fill: url(#linear-gradient-11);
      }

      .cls-3 {
        fill: url(#linear-gradient-12);
      }

      .cls-4 {
        fill: url(#linear-gradient-13);
      }

      .cls-5 {
        fill: url(#linear-gradient-10);
      }

      .cls-6 {
        fill: url(#linear-gradient-17);
      }

      .cls-7 {
        fill: url(#linear-gradient-16);
      }

      .cls-8 {
        fill: url(#linear-gradient-19);
      }

      .cls-9 {
        fill: url(#linear-gradient-15);
      }

      .cls-10 {
        fill: url(#linear-gradient-18);
      }

      .cls-11 {
        fill: url(#linear-gradient-14);
      }

      .cls-12 {
        opacity: .65;
      }

      .cls-12, .cls-25, .cls-26 {
        fill: #fff;
      }

      .cls-13 {
        fill: #04e;
      }

      .cls-14 {
        fill: #bdd0fb;
      }

      .cls-15 {
        fill: url(#linear-gradient-4);
      }

      .cls-16 {
        fill: url(#linear-gradient-2);
      }

      .cls-17 {
        fill: url(#linear-gradient-3);
      }

      .cls-18 {
        fill: url(#linear-gradient-8);
      }

      .cls-19 {
        fill: url(#linear-gradient-9);
      }

      .cls-20 {
        fill: url(#linear-gradient-7);
      }

      .cls-21 {
        fill: url(#linear-gradient-5);
      }

      .cls-22 {
        fill: url(#linear-gradient-6);
      }

      .cls-23 {
        fill: #91b3fa;
      }

      .cls-24 {
        fill: #0d7;
      }

      .cls-26 {
        opacity: .85;
      }
    </style>
    <linearGradient id="linear-gradient" x1="452.61" y1="234.55" x2="293.17" y2="91.51" gradientUnits="userSpaceOnUse">
      <stop offset="0" stop-color="#dae3fe"/>
      <stop offset="1" stop-color="#e9effd"/>
    </linearGradient>
    <linearGradient id="linear-gradient-2" x1="386.71" y1="170.74" x2="424.25" y2="170.74" xlink:href="#linear-gradient"/>
    <linearGradient id="linear-gradient-3" x1="262.74" y1="73.45" x2="280.04" y2="73.45" xlink:href="#linear-gradient"/>
    <linearGradient id="linear-gradient-4" x1="224.42" y1="118.22" x2="296.34" y2="118.22" xlink:href="#linear-gradient"/>
    <linearGradient id="linear-gradient-5" x1="-138.91" y1="-609.97" x2="-152.14" y2="-582.7" gradientTransform="translate(318.62 722.27) rotate(9.25)" gradientUnits="userSpaceOnUse">
      <stop offset="0" stop-color="#09005d"/>
      <stop offset="1" stop-color="#1a0f91"/>
    </linearGradient>
    <linearGradient id="linear-gradient-6" x1="259.92" y1="142.13" x2="264.93" y2="293.69" gradientUnits="userSpaceOnUse">
      <stop offset="0" stop-color="#4f52ff"/>
      <stop offset="1" stop-color="#4042e2"/>
    </linearGradient>
    <linearGradient id="linear-gradient-7" x1="230.92" y1="156.25" x2="264.12" y2="236.44" gradientUnits="userSpaceOnUse">
      <stop offset="0" stop-color="#febbba"/>
      <stop offset="1" stop-color="#ff928e"/>
    </linearGradient>
    <linearGradient id="linear-gradient-8" x1="-8776.01" y1="156.08" x2="-8742.81" y2="236.27" gradientTransform="translate(-8486.24) rotate(-180) scale(1 -1)" xlink:href="#linear-gradient-7"/>
    <linearGradient id="linear-gradient-9" x1="233.62" y1="217.3" x2="276.22" y2="164.25" gradientTransform="matrix(1,0,0,1,0,0)" xlink:href="#linear-gradient-5"/>
    <linearGradient id="linear-gradient-10" x1="309.62" y1="208.97" x2="213.52" y2="207.82" gradientTransform="matrix(1,0,0,1,0,0)" xlink:href="#linear-gradient-5"/>
    <linearGradient id="linear-gradient-11" x1="292.3" y1="175.96" x2="273.16" y2="227.83" xlink:href="#linear-gradient-7"/>
    <linearGradient id="linear-gradient-12" x1="246.97" y1="208.62" x2="150.89" y2="207.46" gradientTransform="matrix(1,0,0,1,0,0)" xlink:href="#linear-gradient-5"/>
    <linearGradient id="linear-gradient-13" x1="253.94" y1="160.33" x2="234.78" y2="212.22" xlink:href="#linear-gradient-7"/>
    <linearGradient id="linear-gradient-14" x1="275.27" y1="177.81" x2="241.26" y2="265.93" xlink:href="#linear-gradient-6"/>
    <linearGradient id="linear-gradient-15" x1="266.99" y1="220.29" x2="221.64" y2="157.42" xlink:href="#linear-gradient-6"/>
    <linearGradient id="linear-gradient-16" x1="260.06" y1="162.88" x2="259.62" y2="124.45" xlink:href="#linear-gradient-7"/>
    <linearGradient id="linear-gradient-17" x1="-152.47" y1="-565.96" x2="-151.32" y2="-594.06" gradientTransform="translate(318.62 722.27) rotate(9.25)" xlink:href="#linear-gradient-7"/>
    <linearGradient id="linear-gradient-18" x1="-138.81" y1="-613.81" x2="-153.7" y2="-583.12" xlink:href="#linear-gradient-5"/>
    <linearGradient id="linear-gradient-19" x1="393.71" y1="692.41" x2="395.52" y2="648.36" gradientTransform="translate(-226.84 -491.11) rotate(-7.64)" xlink:href="#linear-gradient-7"/>
  </defs>
  <g id="Layer_1-2" data-name="Layer 1">
    <g>
      <path class="cls-24" d="M385.49,555.08H50.16c-13.57,0-24.56-11-24.56-24.56,0,0-25.6-272.64-25.6-372.05,0-13.57,11-24.56,24.56-24.56,83.83,0,360.93-25.6,360.93-25.6,13.57,0,24.56,11,24.56,24.56v397.64c0,13.57-11,24.56-24.56,24.56Z"/>
      <g>
        <path class="cls-1" d="M399.48,185.04c-5.37,5.53-10.17,8.78-13.85,11.24-35.86,23.94-76.84,17.04-89.52,14.68-20.45-3.81-37.7-6.49-52.53-19.89-33.69-30.44-32.06-93.95-6.31-133.28,3.05-4.66,28.76-42.77,69.84-48.14,1-.13,1.75-.21,2.41-.28,6.35-.67,45.73-4.22,77.84,22.68,4.6,3.85,11.99,10.8,18.85,21.39,25.08,38.73,25.16,98.72-6.74,131.6Z"/>
        <g>
          <path class="cls-23" d="M418.71,101.84c-.13-.73-1.16-.81-1.39-.1-2.22,6.85-8.6,24.64-17.7,33.85-14.81,15-25.26,39.89-16.69,53.34,0,0,49.72-7.12,35.77-87.08Z"/>
          <path class="cls-14" d="M416.95,111.69s-.01.07-.03.22c-.03.14-.06.37-.12.64-.1.55-.27,1.36-.49,2.38-.45,2.04-1.14,4.95-2.07,8.41-.48,1.73-.99,3.6-1.58,5.57-.58,1.97-1.23,4.04-1.92,6.17-.71,2.12-1.46,4.31-2.28,6.52-.2.55-.41,1.11-.61,1.66-.21.55-.42,1.11-.64,1.66-.42,1.11-.87,2.22-1.32,3.33-.44,1.11-.92,2.21-1.38,3.31-.49,1.09-.97,2.17-1.45,3.25-.5,1.06-.99,2.13-1.5,3.16-.26.52-.51,1.03-.76,1.54-.25.51-.5,1.02-.77,1.51-1.03,1.99-2.06,3.9-3.11,5.67-1.03,1.78-2.07,3.42-3.05,4.93-.5.74-.98,1.46-1.44,2.13-.47.67-.94,1.29-1.37,1.88-.22.29-.42.58-.63.85-.21.27-.41.53-.61.77-.39.49-.75.95-1.07,1.36-.66.81-1.21,1.42-1.58,1.85-.37.42-.56.65-.56.65-.05.05-.13.06-.18.01-.05-.05-.06-.12-.02-.18h0s.19-.24.54-.67c.35-.44.87-1.07,1.51-1.89.31-.42.66-.88,1.03-1.38.19-.25.38-.51.59-.78.19-.28.39-.57.6-.86.41-.6.86-1.23,1.31-1.9.44-.68.91-1.4,1.4-2.15.95-1.51,1.95-3.17,2.95-4.95,1-1.78,2.02-3.68,3.03-5.67.26-.49.51-1,.75-1.51.25-.51.5-1.02.75-1.54.5-1.03.98-2.1,1.47-3.16.47-1.07.95-2.15,1.43-3.24.45-1.1.94-2.18,1.38-3.29.45-1.1.9-2.2,1.33-3.31.22-.55.43-1.1.64-1.65.21-.55.41-1.1.62-1.65.82-2.2,1.58-4.38,2.3-6.49.71-2.12,1.39-4.17,2-6.12.62-1.95,1.16-3.81,1.66-5.53.48-1.72.94-3.3,1.31-4.7.38-1.4.69-2.63.94-3.64.25-1.01.44-1.81.56-2.35.06-.27.1-.47.13-.61.03-.14.04-.22.04-.22h0c.01-.08.08-.13.15-.12.07.01.11.08.1.14Z"/>
        </g>
        <g>
          <path class="cls-14" d="M384.31,195.17s.17-9.05,9.26-18.24c8.44-8.52,29.18-28.24,33.94-39.15.21-.48.93-.34.93.18.07,5.65-.86,19.83-10.6,33.94-12.55,18.2-33.54,23.26-33.54,23.26Z"/>
          <path class="cls-16" d="M424.25,147.92s-.02.23-.09.67c-.03.22-.08.49-.14.8-.06.32-.14.67-.24,1.07-.09.4-.23.84-.36,1.31-.14.48-.32.98-.5,1.53-.2.54-.42,1.11-.66,1.71-.27.59-.52,1.21-.83,1.85-.61,1.27-1.34,2.62-2.2,4-.44.68-.86,1.41-1.36,2.09-.5.69-.98,1.42-1.54,2.11-1.07,1.41-2.27,2.79-3.53,4.16-.65.67-1.29,1.34-1.95,2.01-.67.65-1.35,1.3-2.02,1.95-1.36,1.29-2.73,2.58-4.1,3.81-1.37,1.24-2.73,2.44-4.06,3.6-1.33,1.14-2.62,2.25-3.84,3.3-1.22,1.05-2.38,2.03-3.43,2.95-1.05.92-2.01,1.78-2.83,2.56-.41.39-.78.77-1.13,1.12-.34.36-.63.69-.91.99-.52.62-.94,1.11-1.18,1.47-.25.35-.39.54-.39.54h0c-.04.07-.12.08-.18.04-.06-.04-.07-.12-.03-.17,0,0,.13-.2.36-.57.23-.38.61-.91,1.11-1.56.27-.32.56-.67.88-1.05.34-.36.69-.77,1.09-1.18.8-.82,1.71-1.74,2.74-2.7,1.03-.96,2.16-1.99,3.36-3.06,1.2-1.07,2.46-2.2,3.77-3.37,1.31-1.17,2.65-2.38,4-3.63.67-.63,1.35-1.26,2.04-1.89.68-.64,1.36-1.28,2.03-1.92.67-.65,1.35-1.3,2.02-1.95.65-.66,1.3-1.31,1.94-1.96,1.25-1.33,2.44-2.68,3.53-4.04.57-.66,1.05-1.37,1.56-2.04.51-.66.95-1.36,1.4-2.02.89-1.33,1.64-2.64,2.31-3.86.34-.61.62-1.22.91-1.79.26-.58.51-1.13.74-1.65.43-1.05.78-1.98,1.03-2.75.13-.39.23-.74.32-1.04.09-.3.15-.57.21-.78.1-.43.14-.66.14-.66,0,0,0-.01.02-.01,0,0,.01,0,.01.02Z"/>
        </g>
        <g>
          <path class="cls-14" d="M259.57,24.85c-3.28,9.81-20.02,67.69,31.47,93.16,0,0,20.83-35.27-29.98-93.46-.44-.51-1.27-.34-1.49.3Z"/>
          <path class="cls-17" d="M263.17,34.7s.4,4.94,1.29,12.31c.22,1.84.48,3.84.76,5.95.29,2.11.6,4.33.95,6.62.34,2.3.73,4.66,1.13,7.06.21,1.2.42,2.41.64,3.62.23,1.21.44,2.43.68,3.64.24,1.21.47,2.43.73,3.63.25,1.21.5,2.41.77,3.6.13.59.26,1.19.39,1.78.14.59.28,1.17.41,1.75.27,1.16.56,2.31.84,3.43,1.14,4.49,2.35,8.65,3.55,12.15.28.88.59,1.71.88,2.5.14.4.28.78.42,1.16.14.37.29.73.42,1.08.28.7.53,1.36.78,1.95.26.6.5,1.14.71,1.64.11.25.21.48.31.7.1.22.2.42.29.61.18.38.34.7.46.96.25.52.38.8.38.8v.02c.13.26.02.56-.23.69-.26.12-.56.02-.69-.24h0s-.13-.29-.38-.81c-.13-.26-.28-.59-.46-.97-.09-.19-.19-.4-.29-.62-.1-.22-.2-.46-.3-.71-.21-.5-.45-1.06-.71-1.66-.25-.61-.5-1.27-.78-1.98-.14-.35-.28-.72-.42-1.1-.13-.38-.27-.77-.41-1.17-.28-.8-.59-1.64-.87-2.53-1.17-3.54-2.37-7.72-3.47-12.25-.27-1.13-.56-2.28-.82-3.45-.13-.58-.27-1.17-.4-1.76-.13-.59-.25-1.19-.38-1.78-.26-1.19-.5-2.4-.74-3.61-.25-1.21-.47-2.43-.7-3.65-.23-1.22-.44-2.44-.66-3.66-.21-1.22-.41-2.43-.61-3.63-.39-2.41-.76-4.78-1.08-7.09-.34-2.3-.63-4.53-.9-6.64-.27-2.11-.51-4.11-.72-5.96-.84-7.39-1.2-12.34-1.2-12.34,0-.12.08-.23.2-.23.12,0,.22.08.23.2Z"/>
        </g>
        <g>
          <path class="cls-23" d="M232.47,36.92c.02-1.02,1.4-1.34,1.86-.43,4.47,8.82,16.91,31.57,31.21,42.12,23.28,17.18,42.76,48.71,34,68.77,0,0-68.93.93-67.07-110.46Z"/>
          <path class="cls-14" d="M237.25,49.81s.03.1.1.28c.07.18.17.45.31.81.28.71.7,1.76,1.25,3.08.55,1.32,1.23,2.92,2.04,4.75.8,1.83,1.74,3.87,2.76,6.11,1.04,2.22,2.17,4.63,3.42,7.15,1.23,2.53,2.59,5.16,4,7.89,1.43,2.71,2.92,5.51,4.5,8.32.4.7.79,1.41,1.19,2.11.41.7.82,1.4,1.22,2.11.81,1.41,1.66,2.81,2.5,4.21.84,1.4,1.73,2.78,2.58,4.17.87,1.37,1.75,2.74,2.63,4.09.9,1.33,1.77,2.67,2.67,3.97.45.65.9,1.29,1.35,1.93.22.32.45.64.67.95.23.31.45.62.68.93.45.62.9,1.23,1.35,1.84.22.3.44.61.67.91.23.3.45.59.68.88.91,1.16,1.75,2.33,2.65,3.42.44.55.87,1.09,1.3,1.62.21.27.43.53.64.79.22.26.43.51.65.76.86,1,1.67,1.99,2.49,2.9.82.91,1.61,1.78,2.36,2.61.76.82,1.5,1.57,2.19,2.3.35.36.68.71,1,1.04.33.32.66.64.97.94.62.6,1.19,1.15,1.7,1.65,1.05.97,1.89,1.71,2.46,2.23.57.51.87.79.87.79h0c.05.05.06.13,0,.19-.05.05-.13.06-.18.01,0,0-.31-.27-.9-.77-.58-.5-1.45-1.22-2.52-2.18-.53-.49-1.11-1.03-1.74-1.62-.32-.3-.65-.6-.99-.92-.33-.33-.67-.67-1.03-1.02-.7-.71-1.47-1.45-2.24-2.26-.76-.82-1.56-1.69-2.4-2.59-.83-.91-1.66-1.89-2.53-2.89-.22-.25-.44-.5-.66-.76-.21-.26-.43-.52-.65-.79-.44-.53-.88-1.07-1.33-1.61-1.79-2.18-3.59-4.55-5.41-7.03-.23-.31-.46-.62-.69-.93-.22-.32-.45-.63-.67-.95-.45-.64-.9-1.28-1.36-1.93-.91-1.3-1.79-2.63-2.7-3.97-.89-1.35-1.77-2.72-2.65-4.09-.43-.69-.86-1.39-1.29-2.09-.43-.7-.87-1.39-1.28-2.1-.84-1.41-1.69-2.81-2.5-4.23-.41-.71-.81-1.41-1.22-2.12-.4-.71-.79-1.42-1.18-2.12-1.58-2.82-3.06-5.63-4.48-8.35-1.4-2.74-2.72-5.4-3.93-7.94-1.22-2.54-2.33-4.96-3.35-7.2-2.01-4.49-3.57-8.28-4.63-10.95-.53-1.34-.92-2.39-1.19-3.11-.13-.36-.23-.65-.3-.84-.06-.19-.09-.29-.09-.29-.02-.07.02-.14.08-.16.07-.02.14.02.16.08h0Z"/>
        </g>
        <g>
          <path class="cls-14" d="M300.63,148.94s-3.13-13.82-19.99-25.01c-15.64-10.38-53.69-34.01-64.46-49.2-.48-.67-1.53-.23-1.37.58,1.69,8.69,7.62,30.11,27.03,48.64,25.02,23.9,58.79,24.99,58.79,24.99Z"/>
          <path class="cls-15" d="M224.45,89.21s.12.34.41.97c.14.31.32.7.55,1.14.11.22.23.46.36.71.14.25.28.52.43.8.29.57.68,1.17,1.06,1.83.39.66.87,1.35,1.35,2.1.51.73,1.06,1.5,1.64,2.31.3.4.62.8.94,1.22.32.41.64.85,1,1.26,1.39,1.69,2.97,3.46,4.75,5.23.45.44.9.88,1.36,1.33.23.22.45.46.7.67.24.22.48.44.73.66.49.44.98.89,1.48,1.33.25.22.49.46.76.67.26.21.53.43.79.65,2.09,1.76,4.35,3.46,6.7,5.11,1.19.8,2.39,1.61,3.6,2.41,1.23.78,2.47,1.56,3.71,2.34,1.25.77,2.49,1.53,3.73,2.3,1.25.75,2.49,1.5,3.73,2.24,1.24.73,2.47,1.46,3.69,2.18,1.22.71,2.43,1.41,3.62,2.1,2.38,1.37,4.68,2.7,6.86,3.95,2.18,1.26,4.25,2.44,6.14,3.58,1.9,1.12,3.59,2.22,5.08,3.22.74.5,1.42,1,2.05,1.45.62.47,1.18.91,1.69,1.31.98.84,1.74,1.5,2.21,2.01.49.49.74.75.74.75.05.05.05.13,0,.18-.05.05-.13.05-.18,0h0s-.27-.26-.76-.72c-.48-.49-1.27-1.11-2.26-1.91-.52-.38-1.08-.8-1.71-1.25-.64-.42-1.32-.9-2.08-1.38-1.5-.95-3.23-1.98-5.13-3.08-1.9-1.1-3.98-2.25-6.18-3.48-2.2-1.22-4.52-2.51-6.93-3.85-1.19-.68-2.41-1.37-3.64-2.08-1.22-.71-2.46-1.43-3.71-2.16-1.24-.74-2.49-1.48-3.74-2.24-1.25-.77-2.5-1.53-3.75-2.3-1.24-.78-2.48-1.56-3.71-2.34-1.23-.81-2.43-1.64-3.63-2.45-2.36-1.68-4.64-3.41-6.72-5.22-.26-.22-.53-.44-.79-.66-.27-.22-.5-.46-.76-.69-.5-.46-.99-.92-1.48-1.37-1-.88-1.87-1.85-2.76-2.75-1.75-1.83-3.29-3.66-4.66-5.39-.35-.42-.66-.87-.97-1.29-.31-.43-.62-.84-.91-1.25-.29-.41-.55-.82-.82-1.22-.26-.4-.52-.78-.76-1.16-.45-.77-.9-1.48-1.27-2.16-.36-.68-.72-1.3-1-1.88-.29-.58-.54-1.09-.73-1.55-.21-.45-.36-.85-.49-1.17-.25-.64-.36-.99-.36-.99,0,0,0-.02.01-.02,0,0,.02,0,.02,0Z"/>
        </g>
        <g>
          <g>
            <path class="cls-24" d="M388.17,197.54h-134.63c-5.44,0-9.84-4.41-9.84-9.84v-87.66c0-5.22,4.08-9.54,9.29-9.83l139.82-7.79c5.85-.33,10.69,4.51,10.37,10.36l-5.19,95.46c-.28,5.22-4.6,9.31-9.83,9.31Z"/>
            <path class="cls-24" d="M324,144.64l73.59-61.29c-1.44-.68-3.06-1.03-4.77-.94l-139.82,7.79c-2.4.13-4.57,1.12-6.2,2.66l55.08,51.22c5.98,5.56,15.82,5.8,22.13.55Z"/>
          </g>
          <path class="cls-12" d="M311.07,142.38c-3.66,0-7.3-1.31-10.23-3.89l-20.75-18.32c-.61-.54-.67-1.47-.13-2.08.54-.61,1.47-.67,2.08-.13l20.75,18.32c4.41,3.89,10.82,4.21,15.6.78l10.75-7.73c.66-.47,1.58-.32,2.05.34.47.66.32,1.58-.34,2.05l-10.75,7.73c-2.73,1.96-5.89,2.93-9.03,2.93Z"/>
          <path class="cls-12" d="M273.35,113.72c-.35,0-.69-.12-.97-.37l-2.79-2.47c-.61-.54-.67-1.47-.13-2.08.54-.61,1.47-.67,2.08-.13l2.79,2.47c.61.54.67,1.47.13,2.08-.29.33-.7.5-1.1.5Z"/>
        </g>
        <g>
          <polygon class="cls-23" points="293.64 54.03 288.03 84.1 305.54 68.71 293.64 54.03"/>
          <path class="cls-13" d="M421.09,63.1l-121.71,5.91c-3.13.15-5.74-2.34-5.74-5.47V13.46c0-5.44,4.32-9.9,9.76-10.07l109.69-3.39c8.17,0,14.79,6.62,14.79,14.79v41.18c0,3.81-2.99,6.94-6.79,7.13Z"/>
          <path class="cls-26" d="M303.03,66.86c-1.9,0-3.7-.72-5.09-2.04-1.48-1.41-2.29-3.31-2.29-5.35V14.34c0-5.24,4.21-9.48,9.58-9.64l106.2-3.21c7.97,0,14.45,6.33,14.45,14.1v38.91c0,3.67-2.94,6.69-6.7,6.86v-.13s0,.13,0,.13l-115.8,5.48c-.12,0-.24,0-.36,0ZM411.43,1.75l-106.2,3.21c-5.23.16-9.33,4.28-9.33,9.38v45.13c0,1.97.78,3.8,2.21,5.16,1.43,1.36,3.29,2.06,5.26,1.96l115.8-5.48c3.62-.17,6.45-3.07,6.45-6.61V15.59c0-7.63-6.37-13.85-14.19-13.85Z"/>
          <g>
            <path class="cls-25" d="M312.93,24.28c.14.01.26.04.37.09.11.05.22.12.32.21.11.09.22.22.36.37l13.56,16.06c-.06-.4-.11-.79-.14-1.17-.03-.38-.05-.74-.06-1.07l-.54-15.02,4.05-.15.89,24.71-2.38.09c-.36.01-.67-.03-.91-.14-.24-.11-.48-.3-.72-.59l-13.51-15.99c.05.36.09.72.12,1.08.03.36.05.69.06.98l.55,15.17-4.05.15-.89-24.71,2.41-.09c.21,0,.38,0,.51,0Z"/>
            <path class="cls-25" d="M351.43,22.87l.13,3.66-10.95.39.25,6.85,8.63-.31.13,3.54-8.63.31.25,6.99,10.95-.39.13,3.67-15.58.56-.89-24.71,15.58-.56Z"/>
            <path class="cls-25" d="M353.12,22.81l3.86-.14c.4-.01.73.07,1.01.25.27.18.46.43.57.74l4.74,14.63c.12.36.22.75.32,1.18.1.42.2.87.3,1.35.07-.48.16-.94.25-1.37.09-.43.2-.83.31-1.2l4.32-14.95c.08-.27.25-.51.51-.74.26-.23.58-.35.97-.36l1.35-.05c.4-.01.73.07,1,.25.27.18.46.43.57.74l5.35,14.61c.28.72.52,1.52.74,2.4.06-.45.13-.88.2-1.29.07-.41.15-.8.22-1.15l3.67-14.93c.07-.29.24-.54.5-.75.27-.21.59-.33.98-.34l3.61-.13-6.78,24.98-4.15.15-6.01-16.69c-.08-.21-.16-.44-.24-.69-.08-.25-.16-.51-.24-.8-.06.29-.12.56-.18.81-.07.25-.13.49-.19.71l-4.84,17.08-4.15.15-8.56-24.43Z"/>
            <path class="cls-25" d="M404.58,25.46c-.12.26-.26.44-.42.55-.16.11-.36.17-.58.17-.23,0-.49-.07-.78-.24-.29-.17-.63-.35-1.03-.55-.4-.2-.85-.38-1.38-.54-.52-.16-1.14-.22-1.85-.2-.64.02-1.19.12-1.66.29-.47.17-.86.4-1.17.68-.32.28-.55.62-.69,1.01-.15.39-.21.81-.19,1.26.02.58.2,1.06.54,1.43.34.38.78.69,1.33.94.55.25,1.16.48,1.85.67.69.19,1.4.4,2.12.62.72.22,1.43.48,2.12.78.7.3,1.32.69,1.87,1.16.55.48,1.01,1.07,1.36,1.77.35.71.54,1.57.58,2.6.04,1.12-.11,2.17-.46,3.16-.35.99-.87,1.86-1.58,2.61-.71.75-1.59,1.35-2.63,1.81-1.04.45-2.25.71-3.62.75-.79.03-1.56-.02-2.33-.15-.77-.13-1.51-.32-2.22-.58-.71-.26-1.38-.58-2-.95-.62-.38-1.18-.8-1.68-1.27l1.25-2.25c.12-.16.27-.3.44-.42.17-.11.37-.18.58-.18.28-.01.6.1.94.32.34.22.74.47,1.2.74.46.27,1,.51,1.62.72.62.21,1.35.3,2.21.27,1.31-.05,2.31-.39,3.01-1.04.7-.65,1.02-1.55.98-2.71-.02-.65-.2-1.17-.54-1.57s-.78-.73-1.33-.99c-.55-.26-1.16-.47-1.85-.64-.69-.17-1.39-.35-2.11-.56-.71-.2-1.42-.45-2.11-.75-.69-.29-1.32-.69-1.87-1.18-.55-.49-1.01-1.12-1.36-1.88-.35-.76-.55-1.7-.59-2.83-.03-.9.12-1.78.44-2.65.33-.87.82-1.64,1.49-2.33.67-.69,1.49-1.25,2.48-1.68.99-.43,2.13-.68,3.41-.72,1.46-.05,2.81.13,4.06.54,1.25.41,2.32,1.01,3.21,1.8l-1.05,2.21Z"/>
          </g>
        </g>
        <g>
          <path class="cls-21" d="M254.19,120.84c-.07.13-4.32,3.26-4.32,3.26,0,0,.94,6.72,4.75,9.38,4.19,2.92,10.12-2.4,10.12-2.4,0,0,4.71,1.12,7.22-8.69.58-2.25-2.75-2.44-6.75-2.03-5.17.53-11.02.49-11.02.49Z"/>
          <path class="cls-22" d="M243.43,147.04c1.98-1.36,4.17-2.39,6.49-3.02.87-.24,5.58,1.13,8.49,1.06,3.99-.09,8.06-1.91,11.35-1.09,3.27.82,5.95,1.88,7.49,2.98,4.63,3.29,7.34,9.43,9,15.5-3.13,3.22-7.08,4.65-7.08,4.65l-.73,29.54-17.47,8.94-19.94-10.01.71-28.87s-6.33-2.95-6.8-4.02c-.46-1.07,2.89-11.82,8.47-15.66Z"/>
          <path class="cls-20" d="M235.26,162.58s-8.48,23.52,10.86,33.19c4.02-.53,2.47-7.21,2.47-7.21,0,0-8.41-1.86-5.88-21.48-2.32-1.91-7.45-4.5-7.45-4.5Z"/>
          <path class="cls-18" d="M285.85,162.58s5.84,24.55-10.86,33.19c-4.02-.53-2.47-7.21-2.47-7.21,0,0,6.78-3.34,5.88-21.48,2.32-1.91,7.45-4.5,7.45-4.5Z"/>
          <rect class="cls-19" x="240.81" y="171.55" width="38.31" height="25.87" rx="1.69" ry="1.69"/>
          <g>
            <path class="cls-5" d="M296.36,205.2c-.14-.04-.28-.08-.43-.11-4.38-1.01-14.52-.47-14.52-.47l-.41,1.12-.68,5.55s9.65,1.74,14.41,1.74c.49,0,.93-.07,1.33-.2,3.57-1.11,3.99-6.59.31-7.62Z"/>
            <path class="cls-2" d="M278.49,204.31l1.72.07c.92.04,1.79.49,2.41,1.25.62.76.94,1.76.88,2.78-.04.81-.38,1.58-.93,2.12-.55.54-1.27.81-2.01.76l-2.63-.19.55-6.79Z"/>
          </g>
          <g>
            <path class="cls-3" d="M235.71,205.67l-.38-1.13s-10.11-.85-14.52.02c-.15.03-.3.06-.44.1-3.71.92-3.42,6.41.11,7.63.4.14.84.22,1.33.24,4.75.15,14.44-1.29,14.44-1.29l-.54-5.57Z"/>
            <path class="cls-4" d="M238.24,204.32l-1.72.02c-.92.01-1.8.43-2.44,1.17-.64.74-.98,1.73-.95,2.75.02.82.34,1.59.88,2.14.54.56,1.25.85,1.99.82l2.63-.11-.38-6.81Z"/>
          </g>
          <path class="cls-11" d="M297.15,187.7c-1.99-4.58-6.85-5.32-10.99-3.18-.07.09-26.28,13.53-49.4,19.42.66,2.12,1,4.38,1.08,6.6.01.49,0,.98-.02,1.46,17.73-.91,36.96-6.82,53.49-12.02,5.13-1.65,8.04-7.21,5.84-12.28Z"/>
          <path class="cls-9" d="M278.62,210.88c-.07-2.56.43-4.94,1.49-7.14.03-.1.07-.2.1-.3-1.32-.41-3.03-.96-5.27-1.72-16.41-5.62-28.94-11.29-40.89-17.82-4.64-2.54-9.92-.84-11.41,4.66-1.33,4.9,1.59,9.09,6.01,10.56,13.23,4.4,6.34,3.18,10.66,4.57,11.6,3.59,26.04,6.86,39.33,7.75,0-.19-.02-.37-.03-.56Z"/>
          <path class="cls-7" d="M249.92,144.02s1.77,7.65,10.34,7.49c8.73-.16,9.51-7.52,9.51-7.52l-5.7-1.22-.48-6.35-8.58.64-.16,6.04-4.93.93Z"/>
          <path class="cls-6" d="M256.98,119.72s-8.26,16,1.54,19.89c6.91,2.74,11.25-10.63,9.95-14.25-2-5.6-3.32-4.93-3.32-4.93l-8.18-.71Z"/>
          <path class="cls-10" d="M270.46,118.26c4.08,1.12.59,9.97-5.55,7.88-6.14-2.09-8.56-2.06-9.52-.38-.96,1.69-1.16,7.68-3.24,4.72-2.28-3.25-3.55-9.76-.76-11.87,2.5-1.88,3.08-4.79,6.07-4.69,3.97.13,7.05-1.63,8.84-.36,2.06,1.46,1.15,3.86,4.15,4.69Z"/>
          <path class="cls-8" d="M255.01,127.14s-1.76-1.9-2.04.39c-.28,2.28.62,5.23,1.68,3.61,1.06-1.61.36-4,.36-4Z"/>
        </g>
      </g>
    </g>
  </g>
</svg>